<svg width="140" height="100" viewBox="0 0 140 100" fill="none" xmlns="http://www.w3.org/2000/svg">
<g clip-path="url(#clip0_698_2235)">
<path d="M43.0703 89.7223V64.9506C43.0703 62.984 43.848 62 45.4049 62C46.8801 62 47.6166 62.984 47.6166 64.9506V89.7223H54.8674V64.9506C54.8674 62.984 55.6038 62 57.0791 62C58.6347 62 59.4136 62.984 59.4136 64.9506V89.7223H67.3394V63.9054C67.3394 61.3654 66.6532 59.2958 65.2806 57.6982C63.9083 56.0994 62.2184 55.3012 60.2126 55.3012C58.6145 55.3012 57.2835 55.8133 56.2183 56.8373C55.1531 57.8626 54.56 59.2343 54.4368 60.9551C54.108 59.2759 53.4017 57.913 52.3166 56.8675C51.2316 55.8232 49.9508 55.3012 48.4767 55.3012C46.8798 55.3012 45.5677 55.8446 44.5441 56.9289C43.5204 58.0157 42.9472 59.419 42.824 61.1395H42.7012V55.9148H35.1442V89.7226H43.07L43.0703 89.7223ZM90.3491 88.6154C92.089 87.4696 93.1641 85.8907 93.5742 83.8828V89.7223H102.484V66.9789C102.484 63.2916 101.234 60.4238 98.7352 58.3732C96.2363 56.325 92.7553 55.3009 88.2903 55.3009C84.0301 55.3009 80.6505 56.2834 78.1528 58.2503C75.6539 60.2181 74.343 62.8611 74.2202 66.1807H82.945C83.0266 64.9922 83.5285 64.0898 84.4504 63.4762C85.3723 62.8611 86.6106 62.5539 88.1675 62.5539C89.8059 62.5539 91.0653 62.913 91.946 63.6295C92.8266 64.3473 93.2668 65.3413 93.2668 66.6102V68.7627H86.632C82.2474 68.7627 78.8492 69.7455 76.4319 71.7133C74.0145 73.6798 72.8075 76.3645 72.8075 79.7654C72.8075 82.9205 73.7896 85.472 75.7569 87.4172C77.7226 89.3651 80.3847 90.3376 83.7441 90.3376C86.4062 90.3376 88.6077 89.763 90.3491 88.6157M83.0983 81.7319C82.1776 80.9124 81.7157 79.8681 81.7157 78.597C81.7157 77.3268 82.1562 76.2916 83.0366 75.4934C83.9172 74.694 85.1766 74.2949 86.8163 74.2949H93.2668V77.7361C93.2668 79.2949 92.7035 80.5548 91.5772 81.5163C90.4505 82.4801 88.9253 82.9608 87.0008 82.9608C85.3199 82.9608 84.0202 82.5518 83.0983 81.7322M139.717 91.259H110.225V99.8648H139.717V91.259Z" fill="#282828"/>
<path d="M25.6215 45.9779C28.2836 43.7251 29.6975 40.6517 29.8603 36.7571H20.8907C20.7679 38.233 20.163 39.37 19.0779 40.1694C17.9917 40.9676 16.6091 41.3679 14.9306 41.3679C13.0877 41.3679 11.6739 40.886 10.6906 39.9233C9.70847 38.9607 9.21652 37.5977 9.21652 35.8357V27.845C9.21652 26.0417 9.70817 24.6697 10.6906 23.726C11.6742 22.7836 13.088 22.3128 14.9306 22.3128C16.6091 22.3128 17.9917 22.7218 19.0779 23.5414C20.163 24.3622 20.7676 25.4881 20.8907 26.9224H29.8603C29.6972 23.0294 28.2836 19.9559 25.6215 17.7017C22.9582 15.4489 19.3944 14.3218 14.9309 14.3218C11.9403 14.3218 9.31828 14.8854 7.06654 16.011C4.81359 17.1393 3.07217 18.7068 1.84409 20.7134C0.614796 22.7215 0 25.0983 0 27.8444V35.8351C0 38.5396 0.614796 40.9053 1.84409 42.9348C3.07217 44.9628 4.81359 46.5405 7.06654 47.6676C9.31828 48.7947 11.94 49.3583 14.9309 49.3583C19.3944 49.3583 22.9585 48.2318 25.6215 45.9779ZM67.2163 48.7432V40.445H57.509V14.9354H38.3392V23.2336H48.2922V40.445H37.1096V48.7432H67.2163ZM56.4956 8.29774C57.499 7.4369 58.0009 6.26852 58.0009 4.79382C58.0009 3.31912 57.499 2.15075 56.4956 1.28991C55.4906 0.430269 54.1496 -0.000152588 52.4711 -0.000152588C50.7914 -0.000152588 49.4489 0.430269 48.4466 1.28991C47.4416 2.15075 46.9412 3.31912 46.9412 4.79382C46.9412 6.26852 47.4416 7.4369 48.4466 8.29774C49.4489 9.15738 50.7911 9.5878 52.4711 9.5878C54.1496 9.5878 55.4906 9.15738 56.4956 8.29774Z" fill="#282828"/>
</g>
<defs>
<clipPath id="clip0_698_2235">
<rect width="140" height="100" fill="white"/>
</clipPath>
</defs>
</svg>
