<svg viewBox="0 0 256 86" fill="none" xmlns="http://www.w3.org/2000/svg">
<path d="M256 77H222V86H256V77Z" fill="#0000FF"/>
<g clip-path="url(#clip0_761_3244)">
<path d="M125.197 74.9833V36.835C125.197 33.8065 126.385 32.2911 128.765 32.2911C131.019 32.2911 132.144 33.8065 132.144 36.835V74.9833H143.225V36.835C143.225 33.8065 144.35 32.2911 146.605 32.2911C148.982 32.2911 150.172 33.8065 150.172 36.835V74.9833H162.284V35.2254C162.284 31.3137 161.236 28.1266 159.138 25.6663C157.041 23.2042 154.458 21.975 151.393 21.975C148.951 21.975 146.917 22.7635 145.289 24.3406C143.661 25.9196 142.755 28.032 142.567 30.682C142.064 28.096 140.985 25.997 139.327 24.387C137.669 22.7788 135.711 21.975 133.459 21.975C131.019 21.975 129.013 22.8117 127.449 24.4816C125.885 26.1552 125.009 28.3163 124.821 30.9658H124.633V22.9198H113.085V74.9837L125.197 74.9833ZM197.447 73.2786C200.106 71.5141 201.749 69.0826 202.375 65.9905V74.9833H215.99V39.9586C215.99 34.2801 214.081 29.8637 210.262 26.7058C206.444 23.5516 201.124 21.9745 194.301 21.9745C187.79 21.9745 182.626 23.4876 178.809 26.5165C174.99 29.5469 172.987 33.6172 172.799 38.7294H186.132C186.257 36.899 187.024 35.5093 188.433 34.5644C189.842 33.6172 191.734 33.1441 194.113 33.1441C196.617 33.1441 198.541 33.697 199.887 34.8005C201.233 35.9059 201.906 37.4366 201.906 39.3908V42.7055H191.767C185.066 42.7055 179.873 44.2191 176.179 47.2494C172.485 50.2779 170.64 54.4123 170.64 59.6497C170.64 64.5085 172.141 68.4378 175.147 71.4334C178.151 74.4331 182.22 75.9309 187.353 75.9309C191.421 75.9309 194.786 75.0454 197.447 73.2786ZM186.366 62.6781C184.959 61.416 184.254 59.8078 184.254 57.8503C184.254 55.8943 184.927 54.3 186.272 53.0708C187.618 51.8397 189.542 51.2251 192.048 51.2251H201.906V56.5247C201.906 58.9251 201.045 60.8654 199.324 62.346C197.602 63.8304 195.271 64.5707 192.33 64.5707C189.761 64.5707 187.775 63.9403 186.366 62.6781Z" fill="#0000FF"/>
<path d="M39.154 70.8058C43.2221 67.3366 45.3827 62.6035 45.6316 56.6058H31.9245C31.7368 58.8787 30.8125 60.6298 29.1543 61.8608C27.4943 63.0901 25.3815 63.7065 22.8165 63.7065C20.0003 63.7065 17.8397 62.9644 16.337 61.4819C14.8362 59.9994 14.0844 57.9005 14.0844 55.1869V42.8813C14.0844 40.1042 14.8357 37.9914 16.337 36.5381C17.8401 35.0867 20.0007 34.3617 22.8165 34.3617C25.3815 34.3617 27.4943 34.9916 29.1543 36.2538C30.8125 37.5178 31.7364 39.2517 31.9245 41.4605H45.6316C45.3823 35.4652 43.2221 30.7321 39.154 27.2606C35.084 23.7914 29.6379 22.0557 22.817 22.0557C18.2469 22.0557 14.2399 22.9235 10.7989 24.657C7.35598 26.3946 4.6948 28.8085 2.81807 31.8987C0.939512 34.9912 0 38.6514 0 42.8804V55.186C0 59.3509 0.939512 62.994 2.81807 66.1195C4.6948 69.2426 7.35598 71.6723 10.7989 73.408C14.2399 75.1438 18.2464 76.0116 22.817 76.0116C29.6379 76.0116 35.0845 74.2768 39.154 70.8058ZM102.718 75.0645V62.2853H87.8834V23.0005H58.5888V35.7797H73.7986V62.2853H56.7098V75.0645H102.718ZM86.3348 12.7786C87.8683 11.4529 88.6352 9.65361 88.6352 7.38258C88.6352 5.11155 87.8683 3.31226 86.3348 1.98656C84.799 0.662725 82.7497 -0.00012207 80.1847 -0.00012207C77.6178 -0.00012207 75.5663 0.662725 74.0346 1.98656C72.4988 3.31226 71.7342 5.11155 71.7342 7.38258C71.7342 9.65361 72.4988 11.4529 74.0346 12.7786C75.5663 14.1024 77.6174 14.7653 80.1847 14.7653C82.7497 14.7653 84.799 14.1024 86.3348 12.7786Z" fill="#0000FF"/>
</g>
<defs>
<clipPath id="clip0_761_3244">
<rect width="217" height="77" fill="white"/>
</clipPath>
</defs>
</svg>
